<mxfile host="app.diagrams.net" agent="Mozilla/5.0 (Windows NT 10.0; Win64; x64) AppleWebKit/537.36 (KHTML, like Gecko) Chrome/133.0.0.0 Safari/537.36" version="26.0.15">
  <diagram id="Y4e_RXW6ike6LnzXsYgl" name="Page-1">
    <mxGraphModel dx="1100" dy="630" grid="1" gridSize="10" guides="1" tooltips="1" connect="1" arrows="1" fold="1" page="1" pageScale="1" pageWidth="850" pageHeight="1100" math="0" shadow="0">
      <root>
        <mxCell id="0" />
        <mxCell id="1" parent="0" />
        <mxCell id="cCnxi73rmPmmmRXpYKFE-1" value="1.遍历 cache ，检查是否在临界区域被修改" style="rounded=1;whiteSpace=wrap;html=1;" vertex="1" parent="1">
          <mxGeometry x="305" y="130" width="405" height="110" as="geometry" />
        </mxCell>
        <mxCell id="cCnxi73rmPmmmRXpYKFE-2" value="2. 计算 diffs，放入diffmsg[] 相应的消息中，封装满后发送至其 home 主机&lt;div&gt;&lt;br&gt;&lt;/div&gt;&lt;div&gt;同时，将修改的页的地址记录到 lock（栈顶） 的记录列表中，并记录标识号为 Maxhosts&lt;/div&gt;" style="rounded=1;whiteSpace=wrap;html=1;" vertex="1" parent="1">
          <mxGeometry x="305" y="270" width="405" height="150" as="geometry" />
        </mxCell>
        <mxCell id="cCnxi73rmPmmmRXpYKFE-3" value="3. 将修改的本地页的地址记录到 lock（栈顶）的记录列表中，并记录标识号为 Maxhosts" style="rounded=1;whiteSpace=wrap;html=1;" vertex="1" parent="1">
          <mxGeometry x="305" y="460" width="405" height="180" as="geometry" />
        </mxCell>
        <mxCell id="cCnxi73rmPmmmRXpYKFE-4" value="4. 将锁id与锁的记录列表封装到 WTNT 消息，发送给 lock（栈顶） 的home 主机，设置消息 scope 为 locks[top.lockid].myscope。&lt;div&gt;模式可能为 WTNT，...， WTNT，REL&lt;/div&gt;" style="rounded=1;whiteSpace=wrap;html=1;" vertex="1" parent="1">
          <mxGeometry x="305" y="690" width="405" height="160" as="geometry" />
        </mxCell>
        <mxCell id="cCnxi73rmPmmmRXpYKFE-5" value="" style="shape=curlyBracket;whiteSpace=wrap;html=1;rounded=1;labelPosition=left;verticalLabelPosition=middle;align=right;verticalAlign=middle;" vertex="1" parent="1">
          <mxGeometry x="190" y="130" width="20" height="710" as="geometry" />
        </mxCell>
        <mxCell id="cCnxi73rmPmmmRXpYKFE-6" value="终止一个区间，完成锁的释放" style="text;html=1;align=center;verticalAlign=middle;resizable=0;points=[];autosize=1;strokeColor=none;fillColor=none;" vertex="1" parent="1">
          <mxGeometry x="40" y="470" width="180" height="30" as="geometry" />
        </mxCell>
        <mxCell id="cCnxi73rmPmmmRXpYKFE-7" value="" style="shape=curlyBracket;whiteSpace=wrap;html=1;rounded=1;labelPosition=left;verticalLabelPosition=middle;align=right;verticalAlign=middle;" vertex="1" parent="1">
          <mxGeometry x="190" y="980" width="20" height="120" as="geometry" />
        </mxCell>
        <mxCell id="cCnxi73rmPmmmRXpYKFE-8" value="5. 重置 cache 表状态，收回写权限，置状态为只读，（可选）释放 twin 空间&lt;div&gt;重置 home 表，置写通知为零，收回写权限&lt;/div&gt;" style="rounded=1;whiteSpace=wrap;html=1;" vertex="1" parent="1">
          <mxGeometry x="305" y="980" width="435" height="120" as="geometry" />
        </mxCell>
        <mxCell id="cCnxi73rmPmmmRXpYKFE-9" value="开启一个新区间" style="text;html=1;align=center;verticalAlign=middle;resizable=0;points=[];autosize=1;strokeColor=none;fillColor=none;" vertex="1" parent="1">
          <mxGeometry x="80" y="1025" width="110" height="30" as="geometry" />
        </mxCell>
        <mxCell id="cCnxi73rmPmmmRXpYKFE-10" value="" style="shape=curlyBracket;whiteSpace=wrap;html=1;rounded=1;labelPosition=left;verticalLabelPosition=middle;align=right;verticalAlign=middle;" vertex="1" parent="1">
          <mxGeometry x="190" y="1210" width="20" height="120" as="geometry" />
        </mxCell>
        <mxCell id="cCnxi73rmPmmmRXpYKFE-11" value="锁出栈" style="text;html=1;align=center;verticalAlign=middle;resizable=0;points=[];autosize=1;strokeColor=none;fillColor=none;" vertex="1" parent="1">
          <mxGeometry x="130" y="1255" width="60" height="30" as="geometry" />
        </mxCell>
        <mxCell id="cCnxi73rmPmmmRXpYKFE-12" value="6. 将锁出栈，如果锁对应的记录列表不为空，将其保存到新栈顶的锁对应的记录列表。释放锁的记录列表空间。" style="rounded=1;whiteSpace=wrap;html=1;" vertex="1" parent="1">
          <mxGeometry x="305" y="1210" width="435" height="120" as="geometry" />
        </mxCell>
      </root>
    </mxGraphModel>
  </diagram>
</mxfile>
